<?xml version="1.0" encoding="UTF-8" standalone="no"?>
<!DOCTYPE svg PUBLIC "-//W3C//DTD SVG 1.1//EN"
 "http://www.w3.org/Graphics/SVG/1.1/DTD/svg11.dtd">
<!-- Generated by graphviz version 14.0.2 (20251019.1705)
 -->
<!-- Title: DefTech_Tool_Workflow Pages: 1 -->
<svg width="780pt" height="406pt"
 viewBox="0.00 0.00 780.00 406.00" xmlns="http://www.w3.org/2000/svg" xmlns:xlink="http://www.w3.org/1999/xlink">
<g id="graph0" class="graph" transform="scale(1 1) rotate(0) translate(4 402)">
<title>DefTech_Tool_Workflow</title>
<polygon fill="white" stroke="none" points="-4,4 -4,-402 776,-402 776,4 -4,4"/>
<g id="clust1" class="cluster">
<title>cluster_search_manuals</title>
<polygon fill="#e8f5e9" stroke="#e8f5e9" points="10.25,-8 10.25,-135 764,-135 764,-8 10.25,-8"/>
<text xml:space="preserve" text-anchor="middle" x="387.12" y="-117.7" font-family="Times,serif" font-size="14.00">search_manuals Workflow</text>
</g>
<g id="clust2" class="cluster">
<title>cluster_search_doctrine</title>
<polygon fill="#e3f2fd" stroke="#e3f2fd" points="8,-143 8,-270 764,-270 764,-143 8,-143"/>
<text xml:space="preserve" text-anchor="middle" x="386" y="-252.7" font-family="Times,serif" font-size="14.00">search_doctrine Workflow</text>
</g>
<g id="clust3" class="cluster">
<title>cluster_log_access</title>
<polygon fill="#fff3e0" stroke="#fff3e0" points="10.25,-278 10.25,-390 752.38,-390 752.38,-278 10.25,-278"/>
<text xml:space="preserve" text-anchor="middle" x="381.31" y="-372.7" font-family="Times,serif" font-size="14.00">log_access Workflow</text>
</g>
<!-- sm_input -->
<g id="node1" class="node">
<title>sm_input</title>
<path fill="#c8e6c9" stroke="black" d="M108.5,-86.62C108.5,-86.62 30.25,-86.62 30.25,-86.62 24.25,-86.62 18.25,-80.62 18.25,-74.62 18.25,-74.62 18.25,-43.38 18.25,-43.38 18.25,-37.38 24.25,-31.38 30.25,-31.38 30.25,-31.38 108.5,-31.38 108.5,-31.38 114.5,-31.38 120.5,-37.38 120.5,-43.38 120.5,-43.38 120.5,-74.62 120.5,-74.62 120.5,-80.62 114.5,-86.62 108.5,-86.62"/>
<text xml:space="preserve" text-anchor="middle" x="69.38" y="-69.33" font-family="Arial" font-size="14.00">Input:</text>
<text xml:space="preserve" text-anchor="middle" x="69.38" y="-53.58" font-family="Arial" font-size="14.00">&#45; query</text>
<text xml:space="preserve" text-anchor="middle" x="69.38" y="-37.83" font-family="Arial" font-size="14.00">&#45; manual_type</text>
</g>
<!-- sm_embed -->
<g id="node2" class="node">
<title>sm_embed</title>
<path fill="#a5d6a7" stroke="black" d="M247.5,-78.75C247.5,-78.75 170.75,-78.75 170.75,-78.75 164.75,-78.75 158.75,-72.75 158.75,-66.75 158.75,-66.75 158.75,-51.25 158.75,-51.25 158.75,-45.25 164.75,-39.25 170.75,-39.25 170.75,-39.25 247.5,-39.25 247.5,-39.25 253.5,-39.25 259.5,-45.25 259.5,-51.25 259.5,-51.25 259.5,-66.75 259.5,-66.75 259.5,-72.75 253.5,-78.75 247.5,-78.75"/>
<text xml:space="preserve" text-anchor="middle" x="209.12" y="-61.45" font-family="Arial" font-size="14.00">Embed Query</text>
<text xml:space="preserve" text-anchor="middle" x="209.12" y="-45.7" font-family="Arial" font-size="14.00">(Cohere v3)</text>
</g>
<!-- sm_input&#45;&gt;sm_embed -->
<g id="edge1" class="edge">
<title>sm_input&#45;&gt;sm_embed</title>
<path fill="none" stroke="black" d="M120.89,-59C129.43,-59 138.38,-59 147.15,-59"/>
<polygon fill="black" stroke="black" points="147.03,-62.5 157.03,-59 147.03,-55.5 147.03,-62.5"/>
</g>
<!-- sm_filter -->
<g id="node3" class="node">
<title>sm_filter</title>
<path fill="#81c784" stroke="black" d="M457.75,-86.62C457.75,-86.62 309,-86.62 309,-86.62 303,-86.62 297,-80.62 297,-74.62 297,-74.62 297,-43.38 297,-43.38 297,-37.38 303,-31.38 309,-31.38 309,-31.38 457.75,-31.38 457.75,-31.38 463.75,-31.38 469.75,-37.38 469.75,-43.38 469.75,-43.38 469.75,-74.62 469.75,-74.62 469.75,-80.62 463.75,-86.62 457.75,-86.62"/>
<text xml:space="preserve" text-anchor="middle" x="383.38" y="-69.33" font-family="Arial" font-size="14.00">Filter:</text>
<text xml:space="preserve" text-anchor="middle" x="383.38" y="-53.58" font-family="Arial" font-size="14.00">document_type=&quot;manual&quot;</text>
<text xml:space="preserve" text-anchor="middle" x="383.38" y="-37.83" font-family="Arial" font-size="14.00">manual_type=?</text>
</g>
<!-- sm_embed&#45;&gt;sm_filter -->
<g id="edge2" class="edge">
<title>sm_embed&#45;&gt;sm_filter</title>
<path fill="none" stroke="black" d="M259.95,-59C267.96,-59 276.49,-59 285.17,-59"/>
<polygon fill="black" stroke="black" points="285.12,-62.5 295.12,-59 285.12,-55.5 285.12,-62.5"/>
</g>
<!-- sm_search -->
<g id="node4" class="node">
<title>sm_search</title>
<path fill="#66bb6a" stroke="black" d="M596.75,-78.75C596.75,-78.75 519.25,-78.75 519.25,-78.75 513.25,-78.75 507.25,-72.75 507.25,-66.75 507.25,-66.75 507.25,-51.25 507.25,-51.25 507.25,-45.25 513.25,-39.25 519.25,-39.25 519.25,-39.25 596.75,-39.25 596.75,-39.25 602.75,-39.25 608.75,-45.25 608.75,-51.25 608.75,-51.25 608.75,-66.75 608.75,-66.75 608.75,-72.75 602.75,-78.75 596.75,-78.75"/>
<text xml:space="preserve" text-anchor="middle" x="558" y="-61.45" font-family="Arial" font-size="14.00">Vector Search</text>
<text xml:space="preserve" text-anchor="middle" x="558" y="-45.7" font-family="Arial" font-size="14.00">(Top 5 results)</text>
</g>
<!-- sm_filter&#45;&gt;sm_search -->
<g id="edge3" class="edge">
<title>sm_filter&#45;&gt;sm_search</title>
<path fill="none" stroke="black" d="M470.18,-59C478.81,-59 487.44,-59 495.74,-59"/>
<polygon fill="black" stroke="black" points="495.69,-62.5 505.69,-59 495.69,-55.5 495.69,-62.5"/>
</g>
<!-- sm_output -->
<g id="node5" class="node">
<title>sm_output</title>
<path fill="#4caf50" stroke="black" d="M744,-102.38C744,-102.38 656.75,-102.38 656.75,-102.38 650.75,-102.38 644.75,-96.38 644.75,-90.38 644.75,-90.38 644.75,-27.62 644.75,-27.62 644.75,-21.62 650.75,-15.62 656.75,-15.62 656.75,-15.62 744,-15.62 744,-15.62 750,-15.62 756,-21.62 756,-27.62 756,-27.62 756,-90.38 756,-90.38 756,-96.38 750,-102.38 744,-102.38"/>
<text xml:space="preserve" text-anchor="middle" x="700.38" y="-85.08" font-family="Arial" font-size="14.00">Output:</text>
<text xml:space="preserve" text-anchor="middle" x="700.38" y="-69.33" font-family="Arial" font-size="14.00">&#45; manual_name</text>
<text xml:space="preserve" text-anchor="middle" x="700.38" y="-53.58" font-family="Arial" font-size="14.00">&#45; page</text>
<text xml:space="preserve" text-anchor="middle" x="700.38" y="-37.83" font-family="Arial" font-size="14.00">&#45; text</text>
<text xml:space="preserve" text-anchor="middle" x="700.38" y="-22.07" font-family="Arial" font-size="14.00">&#45; classification</text>
</g>
<!-- sm_search&#45;&gt;sm_output -->
<g id="edge4" class="edge">
<title>sm_search&#45;&gt;sm_output</title>
<path fill="none" stroke="black" d="M608.89,-59C616.71,-59 624.89,-59 633.01,-59"/>
<polygon fill="black" stroke="black" points="632.89,-62.5 642.89,-59 632.89,-55.5 632.89,-62.5"/>
</g>
<!-- sd_input -->
<g id="node6" class="node">
<title>sd_input</title>
<path fill="#bbdefb" stroke="black" d="M110.75,-221.62C110.75,-221.62 28,-221.62 28,-221.62 22,-221.62 16,-215.62 16,-209.62 16,-209.62 16,-178.38 16,-178.38 16,-172.38 22,-166.38 28,-166.38 28,-166.38 110.75,-166.38 110.75,-166.38 116.75,-166.38 122.75,-172.38 122.75,-178.38 122.75,-178.38 122.75,-209.62 122.75,-209.62 122.75,-215.62 116.75,-221.62 110.75,-221.62"/>
<text xml:space="preserve" text-anchor="middle" x="69.38" y="-204.32" font-family="Arial" font-size="14.00">Input:</text>
<text xml:space="preserve" text-anchor="middle" x="69.38" y="-188.57" font-family="Arial" font-size="14.00">&#45; query</text>
<text xml:space="preserve" text-anchor="middle" x="69.38" y="-172.82" font-family="Arial" font-size="14.00">&#45; doctrine_area</text>
</g>
<!-- sd_embed -->
<g id="node7" class="node">
<title>sd_embed</title>
<path fill="#90caf9" stroke="black" d="M247.5,-213.75C247.5,-213.75 170.75,-213.75 170.75,-213.75 164.75,-213.75 158.75,-207.75 158.75,-201.75 158.75,-201.75 158.75,-186.25 158.75,-186.25 158.75,-180.25 164.75,-174.25 170.75,-174.25 170.75,-174.25 247.5,-174.25 247.5,-174.25 253.5,-174.25 259.5,-180.25 259.5,-186.25 259.5,-186.25 259.5,-201.75 259.5,-201.75 259.5,-207.75 253.5,-213.75 247.5,-213.75"/>
<text xml:space="preserve" text-anchor="middle" x="209.12" y="-196.45" font-family="Arial" font-size="14.00">Embed Query</text>
<text xml:space="preserve" text-anchor="middle" x="209.12" y="-180.7" font-family="Arial" font-size="14.00">(Cohere v3)</text>
</g>
<!-- sd_input&#45;&gt;sd_embed -->
<g id="edge5" class="edge">
<title>sd_input&#45;&gt;sd_embed</title>
<path fill="none" stroke="black" d="M123.24,-194C130.99,-194 139.02,-194 146.92,-194"/>
<polygon fill="black" stroke="black" points="146.83,-197.5 156.83,-194 146.83,-190.5 146.83,-197.5"/>
</g>
<!-- sd_filter -->
<g id="node8" class="node">
<title>sd_filter</title>
<path fill="#64b5f6" stroke="black" d="M459.25,-221.62C459.25,-221.62 307.5,-221.62 307.5,-221.62 301.5,-221.62 295.5,-215.62 295.5,-209.62 295.5,-209.62 295.5,-178.38 295.5,-178.38 295.5,-172.38 301.5,-166.38 307.5,-166.38 307.5,-166.38 459.25,-166.38 459.25,-166.38 465.25,-166.38 471.25,-172.38 471.25,-178.38 471.25,-178.38 471.25,-209.62 471.25,-209.62 471.25,-215.62 465.25,-221.62 459.25,-221.62"/>
<text xml:space="preserve" text-anchor="middle" x="383.38" y="-204.32" font-family="Arial" font-size="14.00">Filter:</text>
<text xml:space="preserve" text-anchor="middle" x="383.38" y="-188.57" font-family="Arial" font-size="14.00">document_type=&quot;doctrine&quot;</text>
<text xml:space="preserve" text-anchor="middle" x="383.38" y="-172.82" font-family="Arial" font-size="14.00">doctrine_area=?</text>
</g>
<!-- sd_embed&#45;&gt;sd_filter -->
<g id="edge6" class="edge">
<title>sd_embed&#45;&gt;sd_filter</title>
<path fill="none" stroke="black" d="M259.95,-194C267.53,-194 275.57,-194 283.77,-194"/>
<polygon fill="black" stroke="black" points="283.5,-197.5 293.5,-194 283.5,-190.5 283.5,-197.5"/>
</g>
<!-- sd_search -->
<g id="node9" class="node">
<title>sd_search</title>
<path fill="#42a5f5" stroke="black" d="M596.75,-213.75C596.75,-213.75 519.25,-213.75 519.25,-213.75 513.25,-213.75 507.25,-207.75 507.25,-201.75 507.25,-201.75 507.25,-186.25 507.25,-186.25 507.25,-180.25 513.25,-174.25 519.25,-174.25 519.25,-174.25 596.75,-174.25 596.75,-174.25 602.75,-174.25 608.75,-180.25 608.75,-186.25 608.75,-186.25 608.75,-201.75 608.75,-201.75 608.75,-207.75 602.75,-213.75 596.75,-213.75"/>
<text xml:space="preserve" text-anchor="middle" x="558" y="-196.45" font-family="Arial" font-size="14.00">Vector Search</text>
<text xml:space="preserve" text-anchor="middle" x="558" y="-180.7" font-family="Arial" font-size="14.00">(Top 5 results)</text>
</g>
<!-- sd_filter&#45;&gt;sd_search -->
<g id="edge7" class="edge">
<title>sd_filter&#45;&gt;sd_search</title>
<path fill="none" stroke="black" d="M471.7,-194C479.7,-194 487.68,-194 495.38,-194"/>
<polygon fill="black" stroke="black" points="495.3,-197.5 505.3,-194 495.3,-190.5 495.3,-197.5"/>
</g>
<!-- sd_output -->
<g id="node10" class="node">
<title>sd_output</title>
<path fill="#2196f3" stroke="black" d="M744,-237.38C744,-237.38 656.75,-237.38 656.75,-237.38 650.75,-237.38 644.75,-231.38 644.75,-225.38 644.75,-225.38 644.75,-162.62 644.75,-162.62 644.75,-156.62 650.75,-150.62 656.75,-150.62 656.75,-150.62 744,-150.62 744,-150.62 750,-150.62 756,-156.62 756,-162.62 756,-162.62 756,-225.38 756,-225.38 756,-231.38 750,-237.38 744,-237.38"/>
<text xml:space="preserve" text-anchor="middle" x="700.38" y="-220.07" font-family="Arial" font-size="14.00">Output:</text>
<text xml:space="preserve" text-anchor="middle" x="700.38" y="-204.32" font-family="Arial" font-size="14.00">&#45; manual_name</text>
<text xml:space="preserve" text-anchor="middle" x="700.38" y="-188.57" font-family="Arial" font-size="14.00">&#45; page</text>
<text xml:space="preserve" text-anchor="middle" x="700.38" y="-172.82" font-family="Arial" font-size="14.00">&#45; text</text>
<text xml:space="preserve" text-anchor="middle" x="700.38" y="-157.07" font-family="Arial" font-size="14.00">&#45; classification</text>
</g>
<!-- sd_search&#45;&gt;sd_output -->
<g id="edge8" class="edge">
<title>sd_search&#45;&gt;sd_output</title>
<path fill="none" stroke="black" d="M608.89,-194C616.71,-194 624.89,-194 633.01,-194"/>
<polygon fill="black" stroke="black" points="632.89,-197.5 642.89,-194 632.89,-190.5 632.89,-197.5"/>
</g>
<!-- la_input -->
<g id="node11" class="node">
<title>la_input</title>
<path fill="#ffe0b2" stroke="black" d="M108.5,-357.5C108.5,-357.5 30.25,-357.5 30.25,-357.5 24.25,-357.5 18.25,-351.5 18.25,-345.5 18.25,-345.5 18.25,-298.5 18.25,-298.5 18.25,-292.5 24.25,-286.5 30.25,-286.5 30.25,-286.5 108.5,-286.5 108.5,-286.5 114.5,-286.5 120.5,-292.5 120.5,-298.5 120.5,-298.5 120.5,-345.5 120.5,-345.5 120.5,-351.5 114.5,-357.5 108.5,-357.5"/>
<text xml:space="preserve" text-anchor="middle" x="69.38" y="-340.2" font-family="Arial" font-size="14.00">Input:</text>
<text xml:space="preserve" text-anchor="middle" x="69.38" y="-324.45" font-family="Arial" font-size="14.00">&#45; document_id</text>
<text xml:space="preserve" text-anchor="middle" x="69.38" y="-308.7" font-family="Arial" font-size="14.00">&#45; user_id</text>
<text xml:space="preserve" text-anchor="middle" x="69.38" y="-292.95" font-family="Arial" font-size="14.00">&#45; classification</text>
</g>
<!-- la_validate -->
<g id="node12" class="node">
<title>la_validate</title>
<path fill="#ffcc80" stroke="black" d="M244.88,-341.75C244.88,-341.75 173.38,-341.75 173.38,-341.75 167.38,-341.75 161.38,-335.75 161.38,-329.75 161.38,-329.75 161.38,-314.25 161.38,-314.25 161.38,-308.25 167.38,-302.25 173.38,-302.25 173.38,-302.25 244.88,-302.25 244.88,-302.25 250.88,-302.25 256.88,-308.25 256.88,-314.25 256.88,-314.25 256.88,-329.75 256.88,-329.75 256.88,-335.75 250.88,-341.75 244.88,-341.75"/>
<text xml:space="preserve" text-anchor="middle" x="209.12" y="-324.45" font-family="Arial" font-size="14.00">Validate</text>
<text xml:space="preserve" text-anchor="middle" x="209.12" y="-308.7" font-family="Arial" font-size="14.00">Classification</text>
</g>
<!-- la_input&#45;&gt;la_validate -->
<g id="edge9" class="edge">
<title>la_input&#45;&gt;la_validate</title>
<path fill="none" stroke="black" d="M120.89,-322C130.38,-322 140.37,-322 150.07,-322"/>
<polygon fill="black" stroke="black" points="149.77,-325.5 159.77,-322 149.77,-318.5 149.77,-325.5"/>
</g>
<!-- la_generate -->
<g id="node13" class="node">
<title>la_generate</title>
<path fill="#ffb74d" stroke="black" d="M407.88,-341.75C407.88,-341.75 358.88,-341.75 358.88,-341.75 352.88,-341.75 346.88,-335.75 346.88,-329.75 346.88,-329.75 346.88,-314.25 346.88,-314.25 346.88,-308.25 352.88,-302.25 358.88,-302.25 358.88,-302.25 407.88,-302.25 407.88,-302.25 413.88,-302.25 419.88,-308.25 419.88,-314.25 419.88,-314.25 419.88,-329.75 419.88,-329.75 419.88,-335.75 413.88,-341.75 407.88,-341.75"/>
<text xml:space="preserve" text-anchor="middle" x="383.38" y="-324.45" font-family="Arial" font-size="14.00">Generate</text>
<text xml:space="preserve" text-anchor="middle" x="383.38" y="-308.7" font-family="Arial" font-size="14.00">Audit ID</text>
</g>
<!-- la_validate&#45;&gt;la_generate -->
<g id="edge10" class="edge">
<title>la_validate&#45;&gt;la_generate</title>
<path fill="none" stroke="black" d="M257.19,-322C281.42,-322 310.87,-322 335.13,-322"/>
<polygon fill="black" stroke="black" points="335.05,-325.5 345.05,-322 335.05,-318.5 335.05,-325.5"/>
</g>
<!-- la_write -->
<g id="node14" class="node">
<title>la_write</title>
<path fill="#ffa726" stroke="black" d="M582.5,-341.75C582.5,-341.75 533.5,-341.75 533.5,-341.75 527.5,-341.75 521.5,-335.75 521.5,-329.75 521.5,-329.75 521.5,-314.25 521.5,-314.25 521.5,-308.25 527.5,-302.25 533.5,-302.25 533.5,-302.25 582.5,-302.25 582.5,-302.25 588.5,-302.25 594.5,-308.25 594.5,-314.25 594.5,-314.25 594.5,-329.75 594.5,-329.75 594.5,-335.75 588.5,-341.75 582.5,-341.75"/>
<text xml:space="preserve" text-anchor="middle" x="558" y="-324.45" font-family="Arial" font-size="14.00">Write to</text>
<text xml:space="preserve" text-anchor="middle" x="558" y="-308.7" font-family="Arial" font-size="14.00">Audit Log</text>
</g>
<!-- la_generate&#45;&gt;la_write -->
<g id="edge11" class="edge">
<title>la_generate&#45;&gt;la_write</title>
<path fill="none" stroke="black" d="M420.14,-322C446.18,-322 481.7,-322 510.02,-322"/>
<polygon fill="black" stroke="black" points="509.76,-325.5 519.76,-322 509.76,-318.5 509.76,-325.5"/>
</g>
<!-- la_output -->
<g id="node15" class="node">
<title>la_output</title>
<path fill="#ff9800" stroke="black" d="M732.38,-357.5C732.38,-357.5 668.38,-357.5 668.38,-357.5 662.38,-357.5 656.38,-351.5 656.38,-345.5 656.38,-345.5 656.38,-298.5 656.38,-298.5 656.38,-292.5 662.38,-286.5 668.38,-286.5 668.38,-286.5 732.38,-286.5 732.38,-286.5 738.38,-286.5 744.38,-292.5 744.38,-298.5 744.38,-298.5 744.38,-345.5 744.38,-345.5 744.38,-351.5 738.38,-357.5 732.38,-357.5"/>
<text xml:space="preserve" text-anchor="middle" x="700.38" y="-340.2" font-family="Arial" font-size="14.00">Output:</text>
<text xml:space="preserve" text-anchor="middle" x="700.38" y="-324.45" font-family="Arial" font-size="14.00">&#45; audit_id</text>
<text xml:space="preserve" text-anchor="middle" x="700.38" y="-308.7" font-family="Arial" font-size="14.00">&#45; timestamp</text>
<text xml:space="preserve" text-anchor="middle" x="700.38" y="-292.95" font-family="Arial" font-size="14.00">&#45; success</text>
</g>
<!-- la_write&#45;&gt;la_output -->
<g id="edge12" class="edge">
<title>la_write&#45;&gt;la_output</title>
<path fill="none" stroke="black" d="M594.79,-322C609.9,-322 627.84,-322 644.56,-322"/>
<polygon fill="black" stroke="black" points="644.37,-325.5 654.37,-322 644.37,-318.5 644.37,-325.5"/>
</g>
</g>
</svg>
