<?xml version="1.0" encoding="UTF-8" standalone="no"?>
<!DOCTYPE svg PUBLIC "-//W3C//DTD SVG 1.1//EN"
 "http://www.w3.org/Graphics/SVG/1.1/DTD/svg11.dtd">
<!-- Generated by graphviz version 14.0.2 (20251019.1705)
 -->
<!-- Title: DefTech_MultiStep_Example Pages: 1 -->
<svg width="488pt" height="836pt"
 viewBox="0.00 0.00 488.00 836.00" xmlns="http://www.w3.org/2000/svg" xmlns:xlink="http://www.w3.org/1999/xlink">
<g id="graph0" class="graph" transform="scale(1 1) rotate(0) translate(4 831.5)">
<title>DefTech_MultiStep_Example</title>
<polygon fill="white" stroke="none" points="-4,4 -4,-831.5 484,-831.5 484,4 -4,4"/>
<g id="clust1" class="cluster">
<title>cluster_step1</title>
<polygon fill="#e8f5e9" stroke="#e8f5e9" points="143,-593 143,-764.25 323,-764.25 323,-593 143,-593"/>
<text xml:space="preserve" text-anchor="middle" x="233" y="-746.95" font-family="Times,serif" font-size="14.00">Step 1: Plan</text>
</g>
<g id="clust2" class="cluster">
<title>cluster_step2</title>
<polygon fill="#e3f2fd" stroke="#e3f2fd" points="8,-505 8,-585 472,-585 472,-505 8,-505"/>
<text xml:space="preserve" text-anchor="middle" x="240" y="-567.7" font-family="Times,serif" font-size="14.00">Step 2: Execute Tools</text>
</g>
<g id="clust3" class="cluster">
<title>cluster_step3</title>
<polygon fill="#f3e5f5" stroke="#f3e5f5" points="153,-325.75 153,-497 313,-497 313,-325.75 153,-325.75"/>
<text xml:space="preserve" text-anchor="middle" x="233" y="-479.7" font-family="Times,serif" font-size="14.00">Step 3: Process Results</text>
</g>
<g id="clust4" class="cluster">
<title>cluster_step4</title>
<polygon fill="#fff3e0" stroke="#fff3e0" points="148,-146.5 148,-317.75 318,-317.75 318,-146.5 148,-146.5"/>
<text xml:space="preserve" text-anchor="middle" x="233" y="-300.45" font-family="Times,serif" font-size="14.00">Step 4: Synthesize</text>
</g>
<!-- query -->
<g id="node1" class="node">
<title>query</title>
<polygon fill="#fff9c4" stroke="black" points="324.25,-827.5 135.75,-827.5 135.75,-772.25 330.25,-772.25 330.25,-821.5 324.25,-827.5"/>
<polyline fill="none" stroke="black" points="324.25,-827.5 324.25,-821.5"/>
<polyline fill="none" stroke="black" points="330.25,-821.5 324.25,-821.5"/>
<text xml:space="preserve" text-anchor="middle" x="233" y="-810.2" font-family="Arial" font-size="14.00">User Query:</text>
<text xml:space="preserve" text-anchor="middle" x="233" y="-794.45" font-family="Arial" font-size="14.00">&quot;What are safety protocols for</text>
<text xml:space="preserve" text-anchor="middle" x="233" y="-778.7" font-family="Arial" font-size="14.00">winter maintenance?&quot;</text>
</g>
<!-- s1_analyze -->
<g id="node2" class="node">
<title>s1_analyze</title>
<path fill="#c8e6c9" stroke="black" d="M296.12,-731.75C296.12,-731.75 169.88,-731.75 169.88,-731.75 163.88,-731.75 157.88,-725.75 157.88,-719.75 157.88,-719.75 157.88,-688.5 157.88,-688.5 157.88,-682.5 163.88,-676.5 169.88,-676.5 169.88,-676.5 296.12,-676.5 296.12,-676.5 302.12,-676.5 308.12,-682.5 308.12,-688.5 308.12,-688.5 308.12,-719.75 308.12,-719.75 308.12,-725.75 302.12,-731.75 296.12,-731.75"/>
<text xml:space="preserve" text-anchor="middle" x="233" y="-714.45" font-family="Arial" font-size="14.00">Agent Analyzes Query</text>
<text xml:space="preserve" text-anchor="middle" x="233" y="-698.7" font-family="Arial" font-size="14.00">&#45; Identifies &quot;safety&quot;</text>
<text xml:space="preserve" text-anchor="middle" x="233" y="-682.95" font-family="Arial" font-size="14.00">&#45; Identifies &quot;winter&quot;</text>
</g>
<!-- query&#45;&gt;s1_analyze -->
<g id="edge1" class="edge">
<title>query&#45;&gt;s1_analyze</title>
<path fill="none" stroke="black" d="M233,-771.76C233,-762.92 233,-752.93 233,-743.42"/>
<polygon fill="black" stroke="black" points="236.5,-743.69 233,-733.69 229.5,-743.69 236.5,-743.69"/>
</g>
<!-- s1_decide -->
<g id="node3" class="node">
<title>s1_decide</title>
<path fill="#a5d6a7" stroke="black" d="M302.88,-640.5C302.88,-640.5 163.12,-640.5 163.12,-640.5 157.12,-640.5 151.12,-634.5 151.12,-628.5 151.12,-628.5 151.12,-613 151.12,-613 151.12,-607 157.12,-601 163.12,-601 163.12,-601 302.88,-601 302.88,-601 308.88,-601 314.88,-607 314.88,-613 314.88,-613 314.88,-628.5 314.88,-628.5 314.88,-634.5 308.88,-640.5 302.88,-640.5"/>
<text xml:space="preserve" text-anchor="middle" x="233" y="-623.2" font-family="Arial" font-size="14.00">Decides: Need to search</text>
<text xml:space="preserve" text-anchor="middle" x="233" y="-607.45" font-family="Arial" font-size="14.00">safety AND winter docs</text>
</g>
<!-- s1_analyze&#45;&gt;s1_decide -->
<g id="edge2" class="edge">
<title>s1_analyze&#45;&gt;s1_decide</title>
<path fill="none" stroke="black" d="M233,-676.03C233,-668.35 233,-659.95 233,-652.09"/>
<polygon fill="black" stroke="black" points="236.5,-652.28 233,-642.28 229.5,-652.28 236.5,-652.28"/>
</g>
<!-- s2_tool1 -->
<g id="node4" class="node">
<title>s2_tool1</title>
<path fill="#bbdefb" stroke="black" d="M205.62,-552.5C205.62,-552.5 28.37,-552.5 28.37,-552.5 22.38,-552.5 16.38,-546.5 16.38,-540.5 16.38,-540.5 16.38,-525 16.38,-525 16.38,-519 22.38,-513 28.38,-513 28.38,-513 205.62,-513 205.62,-513 211.62,-513 217.62,-519 217.62,-525 217.62,-525 217.62,-540.5 217.62,-540.5 217.62,-546.5 211.62,-552.5 205.62,-552.5"/>
<text xml:space="preserve" text-anchor="middle" x="117" y="-535.2" font-family="Arial" font-size="14.00">Call: search_manuals</text>
<text xml:space="preserve" text-anchor="middle" x="117" y="-519.45" font-family="Arial" font-size="14.00">(query=&quot;safety&quot;, type=&quot;safety&quot;)</text>
</g>
<!-- s1_decide&#45;&gt;s2_tool1 -->
<g id="edge3" class="edge">
<title>s1_decide&#45;&gt;s2_tool1</title>
<path fill="none" stroke="black" d="M207.26,-600.66C190.89,-588.53 169.49,-572.66 151.64,-559.43"/>
<polygon fill="black" stroke="black" points="154.01,-556.83 143.89,-553.68 149.84,-562.45 154.01,-556.83"/>
</g>
<!-- s2_tool2 -->
<g id="node5" class="node">
<title>s2_tool2</title>
<path fill="#90caf9" stroke="black" d="M452.12,-552.5C452.12,-552.5 247.88,-552.5 247.88,-552.5 241.88,-552.5 235.88,-546.5 235.88,-540.5 235.88,-540.5 235.88,-525 235.88,-525 235.88,-519 241.88,-513 247.88,-513 247.88,-513 452.12,-513 452.12,-513 458.12,-513 464.12,-519 464.12,-525 464.12,-525 464.12,-540.5 464.12,-540.5 464.12,-546.5 458.12,-552.5 452.12,-552.5"/>
<text xml:space="preserve" text-anchor="middle" x="350" y="-535.2" font-family="Arial" font-size="14.00">Call: search_manuals</text>
<text xml:space="preserve" text-anchor="middle" x="350" y="-519.45" font-family="Arial" font-size="14.00">(query=&quot;winter&quot;, type=&quot;operations&quot;)</text>
</g>
<!-- s1_decide&#45;&gt;s2_tool2 -->
<g id="edge4" class="edge">
<title>s1_decide&#45;&gt;s2_tool2</title>
<path fill="none" stroke="black" d="M258.97,-600.66C275.48,-588.53 297.06,-572.66 315.06,-559.43"/>
<polygon fill="black" stroke="black" points="316.9,-562.42 322.89,-553.68 312.76,-556.78 316.9,-562.42"/>
</g>
<!-- s3_results -->
<g id="node6" class="node">
<title>s3_results</title>
<path fill="#e1bee7" stroke="black" d="M292.75,-464.5C292.75,-464.5 173.25,-464.5 173.25,-464.5 167.25,-464.5 161.25,-458.5 161.25,-452.5 161.25,-452.5 161.25,-421.25 161.25,-421.25 161.25,-415.25 167.25,-409.25 173.25,-409.25 173.25,-409.25 292.75,-409.25 292.75,-409.25 298.75,-409.25 304.75,-415.25 304.75,-421.25 304.75,-421.25 304.75,-452.5 304.75,-452.5 304.75,-458.5 298.75,-464.5 292.75,-464.5"/>
<text xml:space="preserve" text-anchor="middle" x="233" y="-447.2" font-family="Arial" font-size="14.00">Received:</text>
<text xml:space="preserve" text-anchor="middle" x="233" y="-431.45" font-family="Arial" font-size="14.00">&#45; 5 safety doc chunks</text>
<text xml:space="preserve" text-anchor="middle" x="233" y="-415.7" font-family="Arial" font-size="14.00">&#45; 5 winter ops chunks</text>
</g>
<!-- s2_tool1&#45;&gt;s3_results -->
<g id="edge5" class="edge">
<title>s2_tool1&#45;&gt;s3_results</title>
<path fill="none" stroke="black" d="M140.75,-512.53C155.2,-500.83 174.07,-485.56 190.98,-471.88"/>
<polygon fill="black" stroke="black" points="192.86,-474.87 198.43,-465.85 188.45,-469.42 192.86,-474.87"/>
</g>
<!-- s2_tool2&#45;&gt;s3_results -->
<g id="edge6" class="edge">
<title>s2_tool2&#45;&gt;s3_results</title>
<path fill="none" stroke="black" d="M326.04,-512.53C311.47,-500.83 292.44,-485.56 275.39,-471.88"/>
<polygon fill="black" stroke="black" points="277.85,-469.38 267.86,-465.85 273.47,-474.84 277.85,-469.38"/>
</g>
<!-- s3_analyze -->
<g id="node7" class="node">
<title>s3_analyze</title>
<path fill="#ce93d8" stroke="black" d="M278.88,-373.25C278.88,-373.25 187.12,-373.25 187.12,-373.25 181.12,-373.25 175.12,-367.25 175.12,-361.25 175.12,-361.25 175.12,-345.75 175.12,-345.75 175.12,-339.75 181.12,-333.75 187.12,-333.75 187.12,-333.75 278.88,-333.75 278.88,-333.75 284.88,-333.75 290.88,-339.75 290.88,-345.75 290.88,-345.75 290.88,-361.25 290.88,-361.25 290.88,-367.25 284.88,-373.25 278.88,-373.25"/>
<text xml:space="preserve" text-anchor="middle" x="233" y="-355.95" font-family="Arial" font-size="14.00">Analyze Overlap</text>
<text xml:space="preserve" text-anchor="middle" x="233" y="-340.2" font-family="Arial" font-size="14.00">&amp; Relevance</text>
</g>
<!-- s3_results&#45;&gt;s3_analyze -->
<g id="edge7" class="edge">
<title>s3_results&#45;&gt;s3_analyze</title>
<path fill="none" stroke="black" d="M233,-408.78C233,-401.1 233,-392.7 233,-384.84"/>
<polygon fill="black" stroke="black" points="236.5,-385.03 233,-375.03 229.5,-385.03 236.5,-385.03"/>
</g>
<!-- s4_combine -->
<g id="node8" class="node">
<title>s4_combine</title>
<path fill="#ffe0b2" stroke="black" d="M292.38,-285.25C292.38,-285.25 173.62,-285.25 173.62,-285.25 167.62,-285.25 161.62,-279.25 161.62,-273.25 161.62,-273.25 161.62,-257.75 161.62,-257.75 161.62,-251.75 167.62,-245.75 173.62,-245.75 173.62,-245.75 292.38,-245.75 292.38,-245.75 298.38,-245.75 304.38,-251.75 304.38,-257.75 304.38,-257.75 304.38,-273.25 304.38,-273.25 304.38,-279.25 298.38,-285.25 292.38,-285.25"/>
<text xml:space="preserve" text-anchor="middle" x="233" y="-267.95" font-family="Arial" font-size="14.00">Combine Information</text>
<text xml:space="preserve" text-anchor="middle" x="233" y="-252.2" font-family="Arial" font-size="14.00">from Both Sources</text>
</g>
<!-- s3_analyze&#45;&gt;s4_combine -->
<g id="edge8" class="edge">
<title>s3_analyze&#45;&gt;s4_combine</title>
<path fill="none" stroke="black" d="M233,-333.41C233,-322.73 233,-309.15 233,-297.02"/>
<polygon fill="black" stroke="black" points="236.5,-297.05 233,-287.05 229.5,-297.05 236.5,-297.05"/>
</g>
<!-- s4_cite -->
<g id="node9" class="node">
<title>s4_cite</title>
<path fill="#ffcc80" stroke="black" d="M297.62,-209.75C297.62,-209.75 168.38,-209.75 168.38,-209.75 162.38,-209.75 156.38,-203.75 156.38,-197.75 156.38,-197.75 156.38,-166.5 156.38,-166.5 156.38,-160.5 162.38,-154.5 168.38,-154.5 168.38,-154.5 297.62,-154.5 297.62,-154.5 303.62,-154.5 309.62,-160.5 309.62,-166.5 309.62,-166.5 309.62,-197.75 309.62,-197.75 309.62,-203.75 303.62,-209.75 297.62,-209.75"/>
<text xml:space="preserve" text-anchor="middle" x="233" y="-192.45" font-family="Arial" font-size="14.00">Add Citations:</text>
<text xml:space="preserve" text-anchor="middle" x="233" y="-176.7" font-family="Arial" font-size="14.00">&#45; Safety Guidelines p.2</text>
<text xml:space="preserve" text-anchor="middle" x="233" y="-160.95" font-family="Arial" font-size="14.00">&#45; Winter Ops p.4</text>
</g>
<!-- s4_combine&#45;&gt;s4_cite -->
<g id="edge9" class="edge">
<title>s4_combine&#45;&gt;s4_cite</title>
<path fill="none" stroke="black" d="M233,-245.63C233,-238.4 233,-229.86 233,-221.46"/>
<polygon fill="black" stroke="black" points="236.5,-221.74 233,-211.74 229.5,-221.74 236.5,-221.74"/>
</g>
<!-- answer -->
<g id="node10" class="node">
<title>answer</title>
<polygon fill="#c8e6c9" stroke="black" points="310.38,-118.5 149.62,-118.5 149.62,0 316.38,0 316.38,-112.5 310.38,-118.5"/>
<polyline fill="none" stroke="black" points="310.38,-118.5 310.38,-112.5"/>
<polyline fill="none" stroke="black" points="316.38,-112.5 310.38,-112.5"/>
<text xml:space="preserve" text-anchor="middle" x="233" y="-101.2" font-family="Arial" font-size="14.00">Final Answer:</text>
<text xml:space="preserve" text-anchor="middle" x="233" y="-85.45" font-family="Arial" font-size="14.00">&quot;For winter maintenance:</text>
<text xml:space="preserve" text-anchor="middle" x="233" y="-69.7" font-family="Arial" font-size="14.00">1. Wear insulated PPE</text>
<text xml:space="preserve" text-anchor="middle" x="233" y="-53.95" font-family="Arial" font-size="14.00">2. Work/rest cycles</text>
<text xml:space="preserve" text-anchor="middle" x="233" y="-38.2" font-family="Arial" font-size="14.00">3. Monitor for frostbite</text>
<text xml:space="preserve" text-anchor="middle" x="233" y="-6.45" font-family="Arial" font-size="14.00">[Citations included]&quot;</text>
</g>
<!-- s4_cite&#45;&gt;answer -->
<g id="edge10" class="edge">
<title>s4_cite&#45;&gt;answer</title>
<path fill="none" stroke="black" d="M233,-154.3C233,-146.95 233,-138.62 233,-130.04"/>
<polygon fill="black" stroke="black" points="236.5,-130.19 233,-120.19 229.5,-130.19 236.5,-130.19"/>
</g>
</g>
</svg>
