<?xml version="1.0" encoding="UTF-8" standalone="no"?>
<!DOCTYPE svg PUBLIC "-//W3C//DTD SVG 1.1//EN"
 "http://www.w3.org/Graphics/SVG/1.1/DTD/svg11.dtd">
<!-- Generated by graphviz version 14.0.2 (20251019.1705)
 -->
<!-- Title: DefTech_Data_Flow Pages: 1 -->
<svg width="1008pt" height="94pt"
 viewBox="0.00 0.00 1008.00 94.00" xmlns="http://www.w3.org/2000/svg" xmlns:xlink="http://www.w3.org/1999/xlink">
<g id="graph0" class="graph" transform="scale(0.665786 0.665786) rotate(0) translate(4 137.73)">
<title>DefTech_Data_Flow</title>
<polygon fill="white" stroke="none" points="-4,4 -4,-137.73 1510,-137.73 1510,4 -4,4"/>
<!-- pdf_docs -->
<g id="node1" class="node">
<title>pdf_docs</title>
<polygon fill="#ffecb3" stroke="black" points="115.75,-115.5 112.75,-119.5 91.75,-119.5 88.75,-115.5 0,-115.5 0,-76 115.75,-76 115.75,-115.5"/>
<text xml:space="preserve" text-anchor="middle" x="57.88" y="-98.2" font-family="Arial" font-size="14.00">PDF Documents</text>
<text xml:space="preserve" text-anchor="middle" x="57.88" y="-82.45" font-family="Arial" font-size="14.00">(4 manuals)</text>
</g>
<!-- extract -->
<g id="node2" class="node">
<title>extract</title>
<polygon fill="#e1f5fe" stroke="black" points="266,-115.5 179.5,-115.5 179.5,-76 266,-76 266,-115.5"/>
<text xml:space="preserve" text-anchor="middle" x="222.75" y="-98.2" font-family="Arial" font-size="14.00">Extract Text</text>
<text xml:space="preserve" text-anchor="middle" x="222.75" y="-82.45" font-family="Arial" font-size="14.00">(PyPDF2)</text>
</g>
<!-- pdf_docs&#45;&gt;extract -->
<g id="edge1" class="edge">
<title>pdf_docs&#45;&gt;extract</title>
<path fill="none" stroke="black" d="M115.84,-95.75C132.76,-95.75 151.23,-95.75 167.94,-95.75"/>
<polygon fill="black" stroke="black" points="167.68,-99.25 177.68,-95.75 167.68,-92.25 167.68,-99.25"/>
<text xml:space="preserve" text-anchor="middle" x="147.62" y="-98.95" font-family="Times,serif" font-size="14.00">Load</text>
</g>
<!-- chunk -->
<g id="node3" class="node">
<title>chunk</title>
<polygon fill="#b3e5fc" stroke="black" points="426.75,-115.5 327.5,-115.5 327.5,-76 426.75,-76 426.75,-115.5"/>
<text xml:space="preserve" text-anchor="middle" x="377.12" y="-98.2" font-family="Arial" font-size="14.00">Chunk Text</text>
<text xml:space="preserve" text-anchor="middle" x="377.12" y="-82.45" font-family="Arial" font-size="14.00">(~500 tokens)</text>
</g>
<!-- extract&#45;&gt;chunk -->
<g id="edge2" class="edge">
<title>extract&#45;&gt;chunk</title>
<path fill="none" stroke="black" d="M266.19,-95.75C281.58,-95.75 299.26,-95.75 315.88,-95.75"/>
<polygon fill="black" stroke="black" points="315.67,-99.25 325.67,-95.75 315.67,-92.25 315.67,-99.25"/>
<text xml:space="preserve" text-anchor="middle" x="296.75" y="-98.95" font-family="Times,serif" font-size="14.00">Split</text>
</g>
<!-- embed -->
<g id="node4" class="node">
<title>embed</title>
<polygon fill="#81d4fa" stroke="black" points="666.25,-115.5 513.75,-115.5 513.75,-76 666.25,-76 666.25,-115.5"/>
<text xml:space="preserve" text-anchor="middle" x="590" y="-98.2" font-family="Arial" font-size="14.00">Generate Embeddings</text>
<text xml:space="preserve" text-anchor="middle" x="590" y="-82.45" font-family="Arial" font-size="14.00">(Cohere Embed v3)</text>
</g>
<!-- chunk&#45;&gt;embed -->
<g id="edge3" class="edge">
<title>chunk&#45;&gt;embed</title>
<path fill="none" stroke="black" d="M427.03,-95.75C449.4,-95.75 476.58,-95.75 502.23,-95.75"/>
<polygon fill="black" stroke="black" points="501.99,-99.25 511.99,-95.75 501.99,-92.25 501.99,-99.25"/>
<text xml:space="preserve" text-anchor="middle" x="470.25" y="-98.95" font-family="Times,serif" font-size="14.00">Vectorize</text>
</g>
<!-- qdrant -->
<g id="node5" class="node">
<title>qdrant</title>
<path fill="#4fc3f7" stroke="black" d="M859.25,-126.83C859.25,-130.64 831.8,-133.73 798,-133.73 764.2,-133.73 736.75,-130.64 736.75,-126.83 736.75,-126.83 736.75,-64.67 736.75,-64.67 736.75,-60.86 764.2,-57.77 798,-57.77 831.8,-57.77 859.25,-60.86 859.25,-64.67 859.25,-64.67 859.25,-126.83 859.25,-126.83"/>
<path fill="none" stroke="black" d="M859.25,-126.83C859.25,-123.02 831.8,-119.92 798,-119.92 764.2,-119.92 736.75,-123.02 736.75,-126.83"/>
<text xml:space="preserve" text-anchor="middle" x="798" y="-106.08" font-family="Arial" font-size="14.00">Qdrant Vector DB</text>
<text xml:space="preserve" text-anchor="middle" x="798" y="-90.33" font-family="Arial" font-size="14.00">(16 chunks)</text>
<text xml:space="preserve" text-anchor="middle" x="798" y="-74.58" font-family="Arial" font-size="14.00">1024 dimensions</text>
</g>
<!-- embed&#45;&gt;qdrant -->
<g id="edge4" class="edge">
<title>embed&#45;&gt;qdrant</title>
<path fill="none" stroke="black" d="M666.54,-95.75C685.65,-95.75 706.11,-95.75 725.04,-95.75"/>
<polygon fill="black" stroke="black" points="724.78,-99.25 734.78,-95.75 724.78,-92.25 724.78,-99.25"/>
<text xml:space="preserve" text-anchor="middle" x="698.5" y="-98.95" font-family="Times,serif" font-size="14.00">Store</text>
</g>
<!-- search -->
<g id="node8" class="node">
<title>search</title>
<polygon fill="#4fc3f7" stroke="black" points="1073.25,-77.5 952.25,-77.5 952.25,-38 1073.25,-38 1073.25,-77.5"/>
<text xml:space="preserve" text-anchor="middle" x="1012.75" y="-60.2" font-family="Arial" font-size="14.00">Similarity Search</text>
<text xml:space="preserve" text-anchor="middle" x="1012.75" y="-44.45" font-family="Arial" font-size="14.00">(Cosine distance)</text>
</g>
<!-- qdrant&#45;&gt;search -->
<g id="edge7" class="edge">
<title>qdrant&#45;&gt;search</title>
<path fill="none" stroke="black" stroke-dasharray="5,2" d="M859.68,-84.91C885.04,-80.38 914.68,-75.09 941.03,-70.38"/>
<polygon fill="black" stroke="black" points="941.37,-73.88 950.6,-68.67 940.14,-66.98 941.37,-73.88"/>
<text xml:space="preserve" text-anchor="middle" x="908.75" y="-83.35" font-family="Times,serif" font-size="14.00">Search in</text>
</g>
<!-- user_q -->
<g id="node6" class="node">
<title>user_q</title>
<polygon fill="#fff59d" stroke="black" points="626.88,-37.75 547.12,-37.75 547.12,-1.75 632.88,-1.75 632.88,-31.75 626.88,-37.75"/>
<polyline fill="none" stroke="black" points="626.88,-37.75 626.88,-31.75"/>
<polyline fill="none" stroke="black" points="632.88,-31.75 626.88,-31.75"/>
<text xml:space="preserve" text-anchor="middle" x="590" y="-14.32" font-family="Arial" font-size="14.00">User Query</text>
</g>
<!-- q_embed -->
<g id="node7" class="node">
<title>q_embed</title>
<polygon fill="#81d4fa" stroke="black" points="865.25,-39.5 730.75,-39.5 730.75,0 865.25,0 865.25,-39.5"/>
<text xml:space="preserve" text-anchor="middle" x="798" y="-22.2" font-family="Arial" font-size="14.00">Embed Query</text>
<text xml:space="preserve" text-anchor="middle" x="798" y="-6.45" font-family="Arial" font-size="14.00">(Cohere Embed v3)</text>
</g>
<!-- user_q&#45;&gt;q_embed -->
<g id="edge5" class="edge">
<title>user_q&#45;&gt;q_embed</title>
<path fill="none" stroke="black" d="M633.18,-19.75C657.92,-19.75 689.94,-19.75 719.1,-19.75"/>
<polygon fill="black" stroke="black" points="719.02,-23.25 729.02,-19.75 719.02,-16.25 719.02,-23.25"/>
<text xml:space="preserve" text-anchor="middle" x="698.5" y="-22.95" font-family="Times,serif" font-size="14.00">1</text>
</g>
<!-- q_embed&#45;&gt;search -->
<g id="edge6" class="edge">
<title>q_embed&#45;&gt;search</title>
<path fill="none" stroke="black" d="M865.73,-31.67C889.61,-35.93 916.6,-40.76 940.82,-45.08"/>
<polygon fill="black" stroke="black" points="940.15,-48.52 950.61,-46.83 941.38,-41.63 940.15,-48.52"/>
<text xml:space="preserve" text-anchor="middle" x="908.75" y="-46.47" font-family="Times,serif" font-size="14.00">2</text>
</g>
<!-- results -->
<g id="node9" class="node">
<title>results</title>
<polygon fill="#c8e6c9" stroke="black" points="1213.75,-75.75 1116,-75.75 1116,-39.75 1213.75,-39.75 1213.75,-75.75"/>
<text xml:space="preserve" text-anchor="middle" x="1164.88" y="-52.33" font-family="Arial" font-size="14.00">Top 5 Results</text>
</g>
<!-- search&#45;&gt;results -->
<g id="edge8" class="edge">
<title>search&#45;&gt;results</title>
<path fill="none" stroke="black" d="M1073.51,-57.75C1083.73,-57.75 1094.35,-57.75 1104.55,-57.75"/>
<polygon fill="black" stroke="black" points="1104.35,-61.25 1114.35,-57.75 1104.35,-54.25 1104.35,-61.25"/>
<text xml:space="preserve" text-anchor="middle" x="1094.62" y="-60.95" font-family="Times,serif" font-size="14.00">3</text>
</g>
<!-- agent -->
<g id="node10" class="node">
<title>agent</title>
<polygon fill="#a5d6a7" stroke="black" points="1370,-75.75 1256.5,-75.75 1256.5,-39.75 1370,-39.75 1370,-75.75"/>
<text xml:space="preserve" text-anchor="middle" x="1313.25" y="-52.33" font-family="Arial" font-size="14.00">Agent Synthesis</text>
</g>
<!-- results&#45;&gt;agent -->
<g id="edge9" class="edge">
<title>results&#45;&gt;agent</title>
<path fill="none" stroke="black" d="M1214.21,-57.75C1223.95,-57.75 1234.36,-57.75 1244.62,-57.75"/>
<polygon fill="black" stroke="black" points="1244.58,-61.25 1254.58,-57.75 1244.58,-54.25 1244.58,-61.25"/>
<text xml:space="preserve" text-anchor="middle" x="1235.12" y="-60.95" font-family="Times,serif" font-size="14.00">4</text>
</g>
<!-- answer -->
<g id="node11" class="node">
<title>answer</title>
<polygon fill="#81c784" stroke="black" points="1500,-75.75 1412.75,-75.75 1412.75,-39.75 1506,-39.75 1506,-69.75 1500,-75.75"/>
<polyline fill="none" stroke="black" points="1500,-75.75 1500,-69.75"/>
<polyline fill="none" stroke="black" points="1506,-69.75 1500,-69.75"/>
<text xml:space="preserve" text-anchor="middle" x="1459.38" y="-52.33" font-family="Arial" font-size="14.00">Final Answer</text>
</g>
<!-- agent&#45;&gt;answer -->
<g id="edge10" class="edge">
<title>agent&#45;&gt;answer</title>
<path fill="none" stroke="black" d="M1370.39,-57.75C1380.49,-57.75 1391.04,-57.75 1401.18,-57.75"/>
<polygon fill="black" stroke="black" points="1400.89,-61.25 1410.89,-57.75 1400.89,-54.25 1400.89,-61.25"/>
<text xml:space="preserve" text-anchor="middle" x="1391.38" y="-60.95" font-family="Times,serif" font-size="14.00">5</text>
</g>
</g>
</svg>
